# xmcd
# 
# Track frame offsets:
#     150
#     14235
#     34527
#     51592
#     69602
#     93035
#     103477
#     126927
#     152687
#     166587
#     190790
#     220537
#     234377
# 
# Disc length: 3336
# 
# Revision: 1
# Processed by: cddbd v1.5.2PL0 Copyright (c) Steve Scherf et al.
# Submitted via: fre:ac v1.0.31
# 
DISCID=ac0d060d
DTITLE=Diane Schuur - The Best of Diane Schuur
DYEAR=0
DGENRE=
TTITLE0=All Right, OK, You Win (I'm in Love With You)
TTITLE1=Try a Little Tenderness
TTITLE2=The There Eyes
TTITLE3=Sunday Kind of Love
TTITLE4=Speak Low
TTITLE5=Deed I Do
TTITLE6=At Last
TTITLE7=A Time for Love
TTITLE8=Blue Gardenia
TTITLE9=New York State of Mind
TTITLE10='Round Midnight
TTITLE11=Stormy Monday Blues
TTITLE12=Deedles' Blues
EXTD=
EXTT0=
EXTT1=
EXTT2=
EXTT3=
EXTT4=
EXTT5=
EXTT6=
EXTT7=
EXTT8=
EXTT9=
EXTT10=
EXTT11=
EXTT12=
PLAYORDER=
